<svg version="1.0" xmlns="http://www.w3.org/2000/svg"
 width="980.000000pt" height="128.000000pt" viewBox="0 0 980.000000 128.000000"
 preserveAspectRatio="xMidYMid meet">

<g transform="translate(0.000000,128.000000) scale(0.100000,-0.100000)"
fill="#fff" stroke="none">
<path d="M515 1268 c-74 -14 -165 -61 -218 -113 l-47 -47 0 76 0 76 -125 0
-125 0 0 -620 0 -620 129 0 129 0 4 368 c4 343 6 371 26 433 28 84 83 148 154
179 44 19 65 22 130 18 101 -6 150 -36 191 -119 41 -82 47 -146 47 -531 l0
-348 129 0 130 0 3 378 c4 435 6 445 90 537 57 62 111 85 202 85 104 -1 172
-46 218 -145 23 -49 23 -57 26 -452 l3 -403 130 0 129 0 0 418 c0 381 -2 426
-19 494 -11 42 -32 99 -46 128 -129 255 -533 293 -756 71 -32 -33 -59 -56 -59
-51 0 20 -102 118 -149 143 -89 49 -215 66 -326 45z"/>
<path d="M2638 1270 c-178 -30 -318 -138 -397 -304 -55 -115 -66 -170 -66
-326 0 -155 15 -223 72 -339 47 -97 142 -193 236 -240 195 -95 435 -69 572 63
27 25 50 46 52 46 2 0 3 -34 3 -75 l0 -75 125 0 125 0 0 620 0 620 -135 0
-135 0 0 -71 0 -72 -50 47 c-100 94 -246 132 -402 106z m268 -273 c139 -71
213 -243 186 -429 -29 -197 -157 -314 -337 -311 -88 1 -149 27 -211 88 -57 57
-90 129 -104 223 -30 216 73 408 245 453 56 15 168 3 221 -24z"/>
<path d="M4283 1269 c-101 -17 -164 -48 -230 -115 l-63 -62 0 84 0 84 -125 0
-125 0 0 -620 0 -620 129 0 129 0 4 352 c4 329 6 357 26 420 44 134 148 210
289 212 l73 1 0 138 0 137 -27 -1 c-16 -1 -51 -5 -80 -10z"/>
<path d="M5054 1271 c-166 -27 -324 -131 -409 -271 -182 -299 -91 -740 187
-908 206 -123 474 -117 651 16 54 41 147 156 147 182 0 4 -43 36 -96 70 l-96
61 -49 -55 c-71 -79 -141 -111 -241 -110 -177 1 -300 119 -328 313 -27 189 48
359 188 428 49 24 69 28 142 28 117 0 184 -34 260 -133 l25 -32 95 61 c52 34
97 63 100 66 9 8 -37 79 -87 133 -57 62 -144 114 -227 136 -66 18 -197 25
-262 15z"/>
<path d="M6268 1270 c-182 -33 -326 -143 -408 -314 -54 -112 -74 -221 -67
-357 10 -184 71 -324 191 -437 113 -105 247 -155 421 -156 112 0 181 13 272
55 59 26 173 120 173 142 0 6 -26 44 -57 86 -32 41 -61 79 -65 85 -3 5 -26 -7
-50 -27 -189 -155 -481 -116 -580 77 -12 24 -16 41 -10 45 6 3 197 46 426 96
l416 90 0 43 c0 72 -30 193 -66 269 -62 131 -189 242 -322 283 -74 23 -206 33
-274 20z m228 -254 c63 -29 116 -81 149 -146 31 -61 31 -78 3 -85 -94 -22
-586 -125 -596 -125 -16 0 -9 62 14 149 18 63 35 92 83 144 61 66 111 85 221
86 59 1 86 -4 126 -23z"/>
<path d="M7608 1270 c-178 -30 -318 -138 -397 -304 -55 -115 -66 -170 -66
-326 0 -155 15 -223 72 -339 47 -97 142 -193 236 -240 195 -95 435 -69 572 63
27 25 50 46 52 46 2 0 3 -34 3 -75 l0 -75 125 0 125 0 0 620 0 620 -135 0
-135 0 0 -71 0 -72 -50 47 c-100 94 -246 132 -402 106z m268 -273 c139 -71
213 -243 186 -429 -29 -197 -157 -314 -337 -311 -88 1 -149 27 -211 88 -57 57
-90 129 -104 223 -30 216 73 408 245 453 56 15 168 3 221 -24z"/>
<path d="M8702 838 c5 -462 7 -478 68 -604 122 -251 507 -309 728 -110 l52 48
0 -76 0 -76 125 0 125 0 0 620 0 620 -135 0 -135 0 0 -357 c0 -368 -4 -414
-43 -489 -28 -54 -68 -94 -121 -122 -44 -23 -63 -27 -136 -27 -125 0 -184 36
-232 140 -23 49 -23 57 -26 453 l-3 402 -135 0 -136 0 4 -422z"/>
</g>
</svg>
